<svg width="160" height="42" viewBox="0 0 160 42" fill="none" xmlns="http://www.w3.org/2000/svg">
<path fill-rule="evenodd" clip-rule="evenodd" d="M29.3628 33.5577C36.2433 33.5577 41.834 28.0357 41.9451 21.1817L41.9468 20.9736C41.9468 32.5569 32.5567 41.947 20.9734 41.947C9.39012 41.947 0 32.5569 0 20.9736L16.7787 20.9736C16.7787 27.9236 22.4128 33.5577 29.3628 33.5577Z" fill="url(#paint0_linear)"/>
<path fill-rule="evenodd" clip-rule="evenodd" d="M12.5845 33.5572C5.704 33.5572 0.113243 28.0352 0.00211334 21.1812L0.000427246 20.9731C0.000427246 32.5564 9.39055 41.9466 20.9738 41.9466C32.5571 41.9466 41.9473 32.5564 41.9473 20.9731L25.1685 20.9731C25.1685 27.9231 19.5345 33.5572 12.5845 33.5572Z" fill="url(#paint1_linear)"/>
<path fill-rule="evenodd" clip-rule="evenodd" d="M12.5845 8.38909C5.704 8.38909 0.113243 13.911 0.00211334 20.765L0.000427246 20.9731C0.000427246 9.38985 9.39055 -0.000274658 20.9738 -0.000274658C32.5571 -0.000274658 41.9473 9.38985 41.9473 20.9731L25.1685 20.9731C25.1685 14.0232 19.5345 8.38909 12.5845 8.38909Z" fill="url(#paint2_linear)"/>
<path fill-rule="evenodd" clip-rule="evenodd" d="M29.3628 8.38958C36.2433 8.38958 41.834 13.9115 41.9451 20.7655L41.9468 20.9736C41.9468 9.39033 32.5567 0.000213623 20.9734 0.000213623C9.39012 0.000213623 0 9.39033 0 20.9736L16.7787 20.9736C16.7787 14.0237 22.4128 8.38958 29.3628 8.38958Z" fill="url(#paint3_linear)"/>
<path d="M16.5682 20.7632H0.208984V21.1827H16.5682V20.7632Z" fill="#EF9146"/>
<path d="M41.7382 20.7632H25.3789V21.1827H41.7382V20.7632Z" fill="#E57622"/>
<path d="M52.3484 29.5491L52.4556 15.0512C52.4556 15.0036 52.4675 14.964 52.4913 14.9323C52.5151 14.8926 52.5429 14.8728 52.5747 14.8728C52.6541 14.8728 52.7057 14.9124 52.7295 14.9917L56.3494 27.9078C56.4923 28.4073 56.7583 28.8037 57.1473 29.0971C57.5362 29.3905 57.9927 29.5372 58.5166 29.5372H58.6119C59.1279 29.5372 59.5844 29.3905 59.9813 29.0971C60.3782 28.7958 60.6442 28.3954 60.7791 27.8959L64.3395 14.9917C64.3633 14.9124 64.4189 14.8728 64.5062 14.8728C64.538 14.8728 64.5658 14.8926 64.5896 14.9323C64.6134 14.964 64.6253 15.0036 64.6253 15.0512V29.5491H66.8283V14.8133C66.8283 14.3535 66.7449 13.9412 66.5782 13.5764C66.4115 13.2038 66.1773 12.9144 65.8756 12.7082C65.5819 12.4941 65.2525 12.3871 64.8873 12.3871H64.6253C64.1093 12.3871 63.6568 12.5338 63.2678 12.8272C62.8868 13.1126 62.6248 13.5011 62.4819 13.9927L58.6953 26.9682C58.6714 27.0475 58.6198 27.0872 58.5405 27.0872C58.4531 27.0872 58.3976 27.0475 58.3738 26.9682L54.7181 14.0284C54.5752 13.5209 54.3053 13.1205 53.9084 12.8272C53.5194 12.5338 53.0669 12.3871 52.5509 12.3871C52.1222 12.3871 51.7372 12.4902 51.3958 12.6963C51.0545 12.9025 50.7846 13.1879 50.5861 13.5526C50.3876 13.9094 50.2884 14.3178 50.2884 14.7776L50.1455 29.5491H52.3484Z" fill="#05070C"/>
<path d="M77.9592 22.2704C77.9592 21.4617 77.6814 20.7203 77.1257 20.0464C76.57 19.3803 75.7721 19.0473 74.7322 19.0473C73.7002 19.0473 72.8865 19.4081 72.2911 20.1296C71.7037 20.8511 71.4099 21.5647 71.4099 22.2704V22.3893H77.9592V22.2704ZM80.3765 23.3884C80.3685 23.5707 80.3646 23.7095 80.3646 23.8046C80.3646 23.8918 80.3646 24.0266 80.3646 24.209H71.4099V24.3398C71.4099 25.2596 71.7116 26.0524 72.3149 26.7185C72.9183 27.3845 73.7161 27.7175 74.7084 27.7175C76.2088 27.7175 77.2447 27.1506 77.8163 26.0168H80.1145C79.8128 27.2061 79.1698 28.1338 78.1854 28.7998C77.2011 29.4658 76.042 29.7949 74.7084 29.7869C72.9937 29.7869 71.6243 29.2002 70.6002 28.0267C69.5761 26.8533 69.0641 25.2992 69.0641 23.3646C69.0641 21.4299 69.5603 19.8838 70.5526 18.7262C71.5528 17.5686 72.9421 16.9898 74.7203 16.9898C76.4985 16.9898 77.8877 17.5686 78.888 18.7262C79.8803 19.8997 80.3765 21.4537 80.3765 23.3884Z" fill="#05070C"/>
<path d="M81.9783 29.5491H84.217V22.4726C84.217 21.6083 84.5226 20.8392 85.1339 20.1653C85.7293 19.4913 86.5946 19.1544 87.7298 19.1544H88.0989C88.1624 19.1623 88.2855 19.1821 88.4681 19.2138V17.0374L87.9679 16.9779L87.7536 16.966C86.8724 16.966 86.0865 17.2633 85.3959 17.858C84.7131 18.4527 84.2845 18.9561 84.1098 19.3684H83.9074L84.1098 17.2514H81.9783V29.5491Z" fill="#05070C"/>
<path d="M91.9454 29.5491H89.7425V17.2277H91.9454V29.5491ZM89.3971 13.8143C89.3971 13.4258 89.5361 13.0928 89.8139 12.8153C90.0997 12.5378 90.4371 12.399 90.8261 12.399C91.2151 12.399 91.5485 12.5378 91.8263 12.8153C92.1042 13.0928 92.2431 13.4258 92.2431 13.8143C92.2431 14.2028 92.1042 14.5398 91.8263 14.8252C91.5485 15.1027 91.2151 15.2415 90.8261 15.2415C90.4371 15.2415 90.0997 15.1027 89.8139 14.8252C89.5361 14.5398 89.3971 14.2028 89.3971 13.8143Z" fill="#05070C"/>
<path d="M97.6126 13.6954H95.4692V15.3485V17.2277H92.9924V19.0473H95.2787V26.0762C95.2787 27.1863 95.5764 28.0465 96.1718 28.6571C96.7672 29.2517 97.5769 29.5491 98.601 29.5491C98.9979 29.5491 99.3393 29.5134 99.625 29.442C99.9267 29.3944 100.117 29.3548 100.197 29.3231V27.2893C100.117 27.3211 99.9743 27.3488 99.7679 27.3726C99.5298 27.3885 99.367 27.3964 99.2797 27.3964C98.6685 27.3964 98.2358 27.2616 97.9818 26.992C97.7357 26.7145 97.6126 26.2903 97.6126 25.7194V19.0473H100.197V17.2277H97.6126V13.6954Z" fill="#05070C"/>
<path d="M119.476 24.1852C119.476 25.1605 118.972 26.3101 117.964 27.6342C117.463 28.2448 116.761 28.7562 115.856 29.1685C114.951 29.5808 113.927 29.7869 112.784 29.7869C110.307 29.7869 108.465 28.994 107.259 27.4083C106.052 25.8225 105.449 23.6976 105.449 21.0335C105.449 18.3536 106.1 16.2048 107.401 14.5874C108.711 12.9699 110.505 12.1611 112.784 12.1611C113.959 12.1611 115.01 12.3792 115.939 12.8153C116.876 13.2513 117.579 13.7826 118.047 14.409C119.015 15.7806 119.492 16.8986 119.476 17.7629H117.154C116.392 15.4873 114.935 14.3098 112.784 14.2306C111.172 14.2306 109.934 14.8252 109.069 16.0145C108.211 17.2039 107.779 18.857 107.771 20.974C107.771 23.099 108.203 24.7561 109.069 25.9454C109.942 27.1347 111.18 27.7254 112.784 27.7175C114.022 27.7175 114.995 27.3488 115.701 26.6114C116.416 25.8661 116.9 25.0574 117.154 24.1852H119.476Z" fill="#05070C"/>
<path d="M123.232 29.5491H121.029V17.2277H123.232V29.5491ZM120.684 13.8143C120.684 13.4258 120.823 13.0928 121.101 12.8153C121.386 12.5378 121.724 12.399 122.113 12.399C122.502 12.399 122.835 12.5378 123.113 12.8153C123.391 13.0928 123.53 13.4258 123.53 13.8143C123.53 14.2028 123.391 14.5398 123.113 14.8252C122.835 15.1027 122.502 15.2415 122.113 15.2415C121.724 15.2415 121.386 15.1027 121.101 14.8252C120.823 14.5398 120.684 14.2028 120.684 13.8143Z" fill="#05070C"/>
<path d="M125.315 29.5491H127.554V22.4726C127.554 21.6083 127.859 20.8392 128.471 20.1653C129.066 19.4913 129.931 19.1544 131.067 19.1544H131.436C131.499 19.1623 131.622 19.1821 131.805 19.2138V17.0374L131.305 16.9779L131.09 16.966C130.209 16.966 129.423 17.2633 128.733 17.858C128.05 18.4527 127.621 18.9561 127.447 19.3684H127.244L127.447 17.2514H125.315V29.5491Z" fill="#05070C"/>
<path d="M140.819 21.3903C140.295 19.9155 139.228 19.1345 137.616 19.0473C136.536 19.0394 135.679 19.4398 135.044 20.2485C134.409 21.0573 134.091 22.1039 134.091 23.3884C134.091 24.6728 134.409 25.7155 135.044 26.5163C135.679 27.3171 136.536 27.7175 137.616 27.7175C139.228 27.6382 140.295 26.8612 140.819 25.3864H143.141C142.816 26.7502 142.177 27.8245 141.224 28.6095C140.271 29.3944 139.069 29.7869 137.616 29.7869C135.814 29.7869 134.405 29.2042 133.389 28.0386C132.381 26.8731 131.877 25.319 131.877 23.3765C131.877 21.4339 132.381 19.8838 133.389 18.7262C134.405 17.5686 135.814 16.9858 137.616 16.9779C139.085 16.9779 140.295 17.3743 141.248 18.1672C142.201 18.9601 142.832 20.0345 143.141 21.3903H140.819Z" fill="#05070C"/>
<path d="M146.97 29.5491H144.767V12.399H146.97V29.5491Z" fill="#05070C"/>
<path d="M157.583 22.2704C157.583 21.4617 157.305 20.7203 156.749 20.0464C156.194 19.3803 155.396 19.0473 154.356 19.0473C153.324 19.0473 152.51 19.4081 151.915 20.1296C151.327 20.8511 151.034 21.5647 151.034 22.2704V22.3893H157.583V22.2704ZM160 23.3884C159.992 23.5707 159.988 23.7095 159.988 23.8046C159.988 23.8918 159.988 24.0266 159.988 24.209H151.034V24.3398C151.034 25.2596 151.335 26.0524 151.939 26.7185C152.542 27.3845 153.34 27.7175 154.332 27.7175C155.832 27.7175 156.868 27.1506 157.44 26.0168H159.738C159.437 27.2061 158.794 28.1338 157.809 28.7998C156.825 29.4658 155.666 29.7949 154.332 29.7869C152.617 29.7869 151.248 29.2002 150.224 28.0267C149.2 26.8533 148.688 25.2992 148.688 23.3646C148.688 21.4299 149.184 19.8838 150.176 18.7262C151.177 17.5686 152.566 16.9898 154.344 16.9898C156.122 16.9898 157.511 17.5686 158.512 18.7262C159.504 19.8997 160 21.4537 160 23.3884Z" fill="#05070C"/>
<defs>
<linearGradient id="paint0_linear" x1="9.17587" y1="20.9736" x2="9.83129" y2="41.947" gradientUnits="userSpaceOnUse">
<stop stop-color="#EF9146"/>
<stop offset="1" stop-color="#E0592E"/>
</linearGradient>
<linearGradient id="paint1_linear" x1="20.9738" y1="20.9731" x2="20.9738" y2="41.9466" gradientUnits="userSpaceOnUse">
<stop stop-color="#E57722"/>
<stop offset="1" stop-color="#F2B24C"/>
</linearGradient>
<linearGradient id="paint2_linear" x1="30.7878" y1="20.9731" x2="30.7878" y2="-0.890656" gradientUnits="userSpaceOnUse">
<stop stop-color="#E57722"/>
<stop offset="1" stop-color="#DD4A33"/>
</linearGradient>
<linearGradient id="paint3_linear" x1="8.52045" y1="20.9736" x2="8.52045" y2="0.000213855" gradientUnits="userSpaceOnUse">
<stop stop-color="#EF9046"/>
<stop offset="1" stop-color="#F3C44F"/>
</linearGradient>
</defs>
</svg>
