<svg width="40" height="40" viewBox="0 0 40 40" fill="none" xmlns="http://www.w3.org/2000/svg">
<path fill-rule="evenodd" clip-rule="evenodd" d="M27.9994 32.0007C34.5605 32.0007 39.8916 26.7352 39.9976 20.1994L39.9992 20.001C39.9992 31.0464 31.0451 40.0006 19.9996 40.0006C8.95413 40.0006 0 31.0464 0 20.001L15.9997 20.001C15.9997 26.6283 21.3722 32.0007 27.9994 32.0007Z" fill="url(#paint0_linear)"/>
<path fill-rule="evenodd" clip-rule="evenodd" d="M12.0006 31.9988C5.43955 31.9988 0.108376 26.7332 0.00240707 20.1975L0.000797272 19.999C0.000797272 31.0445 8.95493 39.9986 20.0004 39.9986C31.0459 39.9986 40 31.0445 40 19.999L24.0003 19.999C24.0003 26.6263 18.6278 31.9988 12.0006 31.9988Z" fill="url(#paint1_linear)"/>
<path fill-rule="evenodd" clip-rule="evenodd" d="M12.0006 7.99926C5.43955 7.99926 0.108376 13.2648 0.00240707 19.8006L0.000797272 19.999C0.000797272 8.95355 8.95493 -0.000577927 20.0004 -0.000577927C31.0459 -0.000577927 40 8.95355 40 19.999L24.0003 19.999C24.0003 13.3717 18.6278 7.99926 12.0006 7.99926Z" fill="url(#paint2_linear)"/>
<path fill-rule="evenodd" clip-rule="evenodd" d="M27.9994 8.00122C34.5605 8.00122 39.8916 13.2668 39.9976 19.8025L39.9992 20.001C39.9992 8.9555 31.0451 0.0013752 19.9996 0.0013752C8.95413 0.0013752 0 8.9555 0 20.001L15.9997 20.001C15.9997 13.3737 21.3722 8.00122 27.9994 8.00122Z" fill="url(#paint3_linear)"/>
<path d="M15.7989 19.7998H0.199219V20.1998H15.7989V19.7998Z" fill="#EF9146"/>
<path d="M39.7999 19.7998H24.2002V20.1998H39.7999V19.7998Z" fill="#E57622"/>
<defs>
<linearGradient id="paint0_linear" x1="8.74982" y1="20.001" x2="9.37481" y2="40.0006" gradientUnits="userSpaceOnUse">
<stop stop-color="#EF9146"/>
<stop offset="1" stop-color="#E0592E"/>
</linearGradient>
<linearGradient id="paint1_linear" x1="20.0004" y1="19.999" x2="20.0004" y2="39.9986" gradientUnits="userSpaceOnUse">
<stop stop-color="#E57722"/>
<stop offset="1" stop-color="#F2B24C"/>
</linearGradient>
<linearGradient id="paint2_linear" x1="29.3587" y1="19.999" x2="29.3587" y2="-0.849618" gradientUnits="userSpaceOnUse">
<stop stop-color="#E57722"/>
<stop offset="1" stop-color="#DD4A33"/>
</linearGradient>
<linearGradient id="paint3_linear" x1="8.12484" y1="20.001" x2="8.12484" y2="0.00137542" gradientUnits="userSpaceOnUse">
<stop stop-color="#EF9046"/>
<stop offset="1" stop-color="#F3C44F"/>
</linearGradient>
</defs>
</svg>
