<svg width="40" height="37" viewBox="0 0 40 37" fill="none" xmlns="http://www.w3.org/2000/svg">
<path fill-rule="evenodd" clip-rule="evenodd" d="M0 31.1791V26.5615C0 26.5615 0 26.5614 0 26.5614C0.000131592 23.7278 8.95439 21.4307 20 21.4307C31.0456 21.4307 39.9999 23.7278 40 26.5614C40 26.5614 40 26.5615 40 26.5615V31.1791C40 34.0128 31.0457 36.31 20 36.31C8.9543 36.31 0 34.0128 0 31.1791Z" fill="url(#paint0_linear)"/>
<ellipse cx="20" cy="26.0488" rx="20" ry="5.13081" fill="#F2B84D"/>
<ellipse cx="20" cy="21.4306" rx="20" ry="5.13081" fill="#F2B84D"/>
<rect y="21.4307" width="40" height="4.61773" fill="#F2B84D"/>
<path fill-rule="evenodd" clip-rule="evenodd" d="M0 26.0474V21.4296C0 21.4296 0 21.4296 0 21.4296C3.61629e-05 18.596 8.95433 16.2988 20 16.2988C31.0457 16.2988 40 18.596 40 21.4296V26.0474C40 28.881 31.0457 31.1782 20 31.1782C8.9543 31.1782 0 28.881 0 26.0474Z" fill="url(#paint1_linear)"/>
<path fill-rule="evenodd" clip-rule="evenodd" d="M0 22.6556V18.038C0 18.038 0 18.038 0 18.0379C0.000263181 15.2043 8.95447 12.9072 20 12.9072C31.0455 12.9072 39.9997 15.2043 40 18.0379C40 18.038 40 18.038 40 18.038V22.6556C40 25.4893 31.0457 27.7865 20 27.7865C8.9543 27.7865 0 25.4893 0 22.6556Z" fill="url(#paint2_linear)"/>
<path fill-rule="evenodd" clip-rule="evenodd" d="M0 17.7867V13.169C0 13.1689 0 13.1689 0 13.1689C0 10.3352 8.9543 8.03809 20 8.03809C31.0457 8.03809 40 10.3352 40 13.1689C40 13.1689 40 13.1689 40 13.169V17.7867C40 20.6204 31.0457 22.9175 20 22.9175C8.9543 22.9175 0 20.6204 0 17.7867Z" fill="url(#paint3_linear)"/>
<path fill-rule="evenodd" clip-rule="evenodd" d="M0 14.6556V10.038C0 10.038 0 10.038 0 10.0379C0.000263181 7.2043 8.95447 4.90723 20 4.90723C31.0455 4.90723 39.9997 7.2043 40 10.0379C40 10.038 40 10.038 40 10.038V14.6556C40 17.4893 31.0457 19.7865 20 19.7865C8.9543 19.7865 0 17.4893 0 14.6556Z" fill="url(#paint4_linear)"/>
<path fill-rule="evenodd" clip-rule="evenodd" d="M0 9.78671V5.16897C0 5.16895 0 5.16892 0 5.1689C0 2.33523 8.9543 0.0380859 20 0.0380859C31.0457 0.0380859 40 2.33523 40 5.1689C40 5.16892 40 5.16895 40 5.16897V9.78671C40 12.6204 31.0457 14.9175 20 14.9175C8.9543 14.9175 0 12.6204 0 9.78671Z" fill="url(#paint5_linear)"/>
<path d="M39.5 5.1689C39.5 5.59773 39.1511 6.14286 38.169 6.73853C37.2168 7.31606 35.8057 7.85397 34.0179 8.31262C30.4498 9.22798 25.4935 9.79971 20 9.79971C14.5065 9.79971 9.55022 9.22798 5.98211 8.31262C4.19428 7.85397 2.78318 7.31606 1.831 6.73853C0.848897 6.14286 0.5 5.59773 0.5 5.1689C0.5 4.74007 0.848897 4.19494 1.831 3.59927C2.78318 3.02174 4.19428 2.48383 5.98211 2.02518C9.55022 1.10982 14.5065 0.538086 20 0.538086C25.4935 0.538086 30.4498 1.10982 34.0179 2.02518C35.8057 2.48383 37.2168 3.02174 38.169 3.59927C39.1511 4.19494 39.5 4.74007 39.5 5.1689Z" stroke="black" stroke-opacity="0.02"/>
<defs>
<linearGradient id="paint0_linear" x1="14" y1="24.5235" x2="20.0001" y2="36.31" gradientUnits="userSpaceOnUse">
<stop stop-color="#ED9D41"/>
<stop offset="1" stop-color="#E57732"/>
</linearGradient>
<linearGradient id="paint1_linear" x1="20" y1="16.2988" x2="20" y2="31.1782" gradientUnits="userSpaceOnUse">
<stop stop-color="#F3BB4D"/>
<stop offset="1" stop-color="#F3BC4D"/>
</linearGradient>
<linearGradient id="paint2_linear" x1="14" y1="16" x2="20" y2="27.7865" gradientUnits="userSpaceOnUse">
<stop stop-color="#ED9D41"/>
<stop offset="1" stop-color="#E57732"/>
</linearGradient>
<linearGradient id="paint3_linear" x1="20" y1="8.03809" x2="20" y2="22.9174" gradientUnits="userSpaceOnUse">
<stop stop-color="#F3BB4D"/>
<stop offset="1" stop-color="#F3BC4D"/>
</linearGradient>
<linearGradient id="paint4_linear" x1="14" y1="8" x2="20" y2="19.7865" gradientUnits="userSpaceOnUse">
<stop stop-color="#ED9D41"/>
<stop offset="1" stop-color="#E57732"/>
</linearGradient>
<linearGradient id="paint5_linear" x1="20" y1="0.0380859" x2="20" y2="14.9174" gradientUnits="userSpaceOnUse">
<stop stop-color="#F3BB4D"/>
<stop offset="1" stop-color="#F3BC4D"/>
</linearGradient>
</defs>
</svg>
